<svg width="359" height="451" viewBox="0 0 359 451" fill="none" xmlns="http://www.w3.org/2000/svg">
<g clip-path="url(#clip0_53_596)">
<path d="M175.19 0.208567C165.971 1.69967 158.067 8.22016 153.854 17.8075C151.214 23.8514 149.912 30.0658 149.703 37.619L149.588 41.7694L148.879 41.9803C146.664 42.6497 145.819 44.7907 145.819 49.8591C145.819 57.049 147.643 60.3567 151.578 60.3567H152.84L152.97 62.5941C153.563 72.4054 155.898 78.8308 159.456 80.4561C159.743 80.5863 159.977 80.7426 159.977 80.8194C159.977 80.8962 159.442 81.24 158.792 81.5838C154.295 83.9553 150.01 87.0156 147.292 89.7491L145.609 91.4707L147.006 92.5229C152.421 96.6147 157.796 103.002 162.51 110.958C163.696 112.947 164.749 114.878 164.519 114.667C164.48 114.61 163.81 113.845 163.046 112.947C159.007 108.204 153.135 102.333 148.6 98.4704C139.953 91.1074 130.368 85.8683 121.432 83.5919C113.355 81.5461 106.108 81.4888 97.9569 83.42C96.809 83.6805 95.8905 83.9553 95.8905 84.0126C95.8905 84.0894 96.2736 84.777 96.7517 85.5753C98.8559 89.1904 99.8891 92.2299 100.023 95.3424C100.1 96.9871 100.061 97.2736 99.893 96.8725C99.7627 96.6043 99.166 95.3619 98.5732 94.1C94.9954 86.526 90.0587 81.7453 83.6876 79.6799C80.7222 78.724 79.7463 78.6094 74.1764 78.6094C61.7403 78.629 54.2982 80.4456 52.8089 83.8303C52.4571 84.5246 52.0606 85.1953 51.622 85.8384C49.4227 88.9938 48.1407 93.1051 47.7381 98.3064L47.6078 100.028L47.3602 99.1672C46.499 96.3178 46.3648 92.3784 47.0345 89.6241C47.7237 86.7369 49.9804 83.0658 52.4871 80.6944C53.7314 79.5223 56.3515 77.5767 57.614 76.8696L58.5261 76.3344L59.885 72.9875C63.0223 65.2038 67.1747 56.2741 69.9863 51.263C74.807 42.6575 79.3997 37.6854 82.885 37.2648C83.4062 37.2075 83.8413 37.0929 83.8413 37.0356C83.8413 36.9783 82.885 35.7919 81.6981 34.4311C80.5111 33.0702 79.6512 32.0218 79.7659 32.0974C79.8961 32.1742 80.9528 32.9204 82.1189 33.7617C83.4974 34.7553 84.4915 35.3101 84.9514 35.3869C85.3331 35.4442 85.7931 35.5406 85.965 35.5588C86.137 35.5979 86.7116 35.5588 87.2471 35.4638C88.0692 35.3492 88.7207 34.9663 90.9968 33.3801C92.5277 32.3292 93.9049 31.2769 94.0769 31.0477C94.5746 30.3211 94.4026 29.5371 93.1401 26.8206L91.9154 24.2017L93.101 25.2526C93.9814 26.0532 94.8202 26.8981 95.6143 27.7842C98.1198 30.5763 98.3308 31.1298 96.9915 31.4749C95.5583 31.8187 95.2117 32.087 95.2117 32.8136C95.2117 33.3489 95.3264 33.5585 95.8436 33.8841C96.6475 34.4389 98.7517 34.9168 100.856 35.0561C102.464 35.1512 102.501 35.133 103.63 34.4441C105.008 33.621 106.29 32.3982 106.615 31.6325C106.787 31.1923 106.787 30.9058 106.596 30.2755C106.233 29.0709 105.084 26.8896 103.4 24.2134C102.583 22.8864 101.738 21.5503 101.55 21.2442L101.205 20.6725L101.645 21.17C101.894 21.437 103.674 23.5792 105.606 25.9129C108.228 29.1061 109.089 30.2729 109.089 30.674C109.089 31.4384 108.113 32.9881 106.792 34.3269C106.14 34.9962 105.664 35.5692 105.701 35.6083C105.759 35.6656 107.155 35.7607 108.82 35.818L111.863 35.9326L112.682 34.4766C114.29 31.6663 114.577 30.213 113.869 28.6255C113.658 28.1658 112.893 26.9234 112.185 25.853C111.476 24.7825 110.807 23.7876 110.73 23.6391C110.521 23.2185 115.896 28.7258 116.777 29.8158C117.179 30.3367 117.504 30.868 117.504 31.0022C117.504 31.1363 116.91 32.2445 116.165 33.4687C115.42 34.6928 114.825 35.7255 114.825 35.7633C114.825 35.8935 116.068 36.0693 117.465 36.0889C119.188 36.1266 119.436 35.9352 120.679 33.526C121.961 31.0399 121.866 30.7339 118.441 25.8191C117.293 24.1743 116.356 22.7783 116.356 22.721C116.356 22.6064 119.111 25.0924 121.215 27.081C124.851 30.5425 124.863 30.9631 121.655 35.3804C120.814 36.5525 119.972 37.5943 119.819 37.7336C119.245 38.1725 117.995 38.192 115.801 37.8092C114.596 37.5995 113.586 37.4458 113.563 37.4654C113.54 37.4849 113.391 37.8287 113.237 38.2116L112.931 38.9187L112.3 38.67C110.177 37.7714 107.804 37.9055 106.35 39.0138C105.086 39.9709 103.958 42.1509 103.614 44.2919L103.499 45.0186L105.243 45.4157C110.274 46.6008 113.833 45.8741 115.344 43.3503C115.682 42.7809 115.944 42.1703 116.126 41.5337C116.256 40.8643 116.337 40.7523 116.738 40.7679C117.007 40.7875 118.364 40.8643 119.761 40.9411L122.287 41.0714L123.684 39.6753C124.927 38.4134 127.185 35.2775 128.429 33.078C128.85 32.3331 128.85 32.2367 128.601 31.4528C128.046 29.7898 125.29 25.487 119.819 17.7033C117.408 14.2797 116.795 13.5361 116.203 13.2665C113.429 12.0241 104.494 11.834 96.6879 12.8458C91.2548 13.553 85.7435 15.0832 82.8928 16.6902C81.9103 17.2434 81.0162 17.9405 80.2401 18.7582C79.2069 19.8482 79.0154 19.9628 77.0454 20.6504C61.6595 26.0626 42.5643 38.4355 20.7342 57.1571C17.2529 60.1406 15.7598 61.8609 12.8908 66.1636C8.87268 72.1879 6.21346 79.1863 5.39003 85.9764C5.29492 86.8554 5.19981 87.9832 5.19981 88.4625C5.19981 89.2269 5.12294 89.374 4.60569 89.6853C4.29951 89.8767 3.43308 90.6229 2.71258 91.3301C-0.789601 94.8306 -0.904256 98.9601 2.38686 103.282C3.68976 105.004 6.61476 107.739 8.47138 108.981C14.595 113.035 23.7009 115.426 35.9065 116.19C37.5898 116.287 39.7904 116.382 40.7858 116.401C42.9095 116.401 42.718 116.554 39.8673 117.128C36.8628 117.74 34.3182 117.95 28.579 118.084L23.1459 118.199L25.5185 120.226C41.2444 133.67 54.8102 140.974 67.073 142.599C69.5994 142.925 75.4116 142.715 77.6539 142.218C85.6315 140.439 92.3088 135.792 98.1641 127.971C99.8096 125.771 102.181 122.118 102.333 121.545C102.41 121.277 102.219 121.277 100.152 121.564C75.624 125.082 57.9454 121.634 47.1166 111.218C46.4469 110.588 45.9309 110.014 45.9687 109.976C46.0065 109.938 47.6338 110.511 49.5856 111.238C72.927 120.015 89.3239 122.118 97.7224 117.434C99.1386 116.631 101.013 114.96 101.855 113.744L102.448 112.883L103.462 114.488C105.451 117.606 107.501 122.195 108.781 126.518C109.042 127.416 109.718 130.055 110.235 132.35C116.229 158.491 123.743 177.558 131.892 187.368C132.413 187.98 132.773 188.477 132.696 188.477C132.295 188.477 129.195 185.991 127.454 184.27C123.703 180.541 120.643 176.027 117.409 169.448C112.665 159.83 109.029 148.529 105.528 132.464C104.955 129.767 104.438 127.549 104.4 127.515C104.362 127.481 104.036 128.036 103.653 128.72C101.51 132.507 97.8566 136.121 93.9726 138.243L93.3407 138.588L93.4554 141.495C93.8762 152.304 99.0422 167.139 108.456 184.47C111.555 190.169 113.104 192.732 114.501 194.395C121.427 202.809 125.005 214.034 125.924 230.175C126.382 238.436 125.866 249.623 124.679 257.33C122.632 270.41 119.284 281.161 115.018 288.233C114.483 289.112 114.061 289.858 114.061 289.935C114.061 289.992 143.506 290.03 179.495 290.03C215.483 290.03 244.927 289.973 244.927 289.915C244.927 289.858 244.544 289.189 244.085 288.424C239.742 281.272 236.375 270.583 234.313 257.33C233.108 249.603 232.61 238.455 233.069 230.175C233.981 214.015 237.565 202.809 244.534 194.375C247.825 190.36 255.688 175.232 259.687 165.194C263.341 155.996 265.313 148.04 265.542 141.518L265.657 138.459L265.025 138.191C261.982 136.929 257.468 132.512 255.344 128.725C254.961 128.037 254.617 127.483 254.598 127.52C254.578 127.558 254.043 129.777 253.469 132.469C250.026 148.226 246.391 159.624 241.798 169.071C237.513 177.868 233.208 183.526 227.87 187.448C227.105 188.021 226.396 188.481 226.321 188.481C226.245 188.481 226.581 187.984 227.103 187.372C235.252 177.562 242.771 158.495 248.759 132.354C249.28 130.058 249.946 127.42 250.213 126.521C251.495 122.199 253.544 117.61 255.533 114.492L256.547 112.887L257.14 113.747C259.034 116.5 262.401 118.471 266.725 119.347C275.564 121.183 290.544 118.334 309.409 111.239C311.363 110.513 312.969 109.937 313.026 109.977C313.064 110.015 312.548 110.589 311.878 111.22C301.048 121.624 283.37 125.072 258.842 121.565C256.776 121.278 256.585 121.278 256.661 121.547C256.815 122.139 259.206 125.81 260.928 128.106C266.725 135.851 273.402 140.46 281.342 142.219C283.581 142.717 289.397 142.926 291.923 142.601C304.186 140.975 317.752 133.671 333.478 120.228L335.85 118.2L330.417 118.085C324.684 117.955 322.133 117.742 319.129 117.129C316.278 116.555 316.086 116.403 318.21 116.403C322.86 116.364 329.728 115.733 334.09 114.93C343.254 113.247 349.454 110.513 353.95 106.153C356.111 104.087 357.279 102.595 358.119 100.798C359.956 96.9155 358.923 93.3395 355.096 90.2231C353.834 89.2086 353.794 89.1709 353.794 88.2905C353.794 87.7944 353.698 86.6653 353.603 85.7863C352.588 77.5819 348.839 69.1484 342.965 61.7866C341.377 59.7981 339.004 57.6754 331.792 51.7279C312.946 36.1995 295.842 25.5521 281.952 20.6517C279.982 19.9641 279.79 19.8495 278.757 18.7595C275.638 15.4309 268.042 13.1597 257.176 12.334C253.521 12.0658 247.571 12.2038 245.236 12.6205C242.31 13.1558 242.482 13.0034 238.79 18.2802C233.375 25.9871 230.85 29.9838 230.39 31.6103C230.141 32.3917 230.16 32.4125 231.231 34.1914C232.934 36.9262 234.388 38.8796 235.633 40.0243L236.761 41.0753L239.268 40.945C240.645 40.8682 241.984 40.7914 242.253 40.7718C242.654 40.7536 242.731 40.8682 242.865 41.5376C243.046 42.1742 243.309 42.7848 243.647 43.3542C245.158 45.8781 248.716 46.6099 253.748 45.4197L255.489 45.0172L255.374 44.2906C255.03 42.1496 253.902 39.9696 252.638 39.0125C251.184 37.9042 248.811 37.7701 246.689 38.6687L246.057 38.9174L245.751 38.2103C245.597 37.8274 245.445 37.4836 245.425 37.4641C245.406 37.4445 244.392 37.5943 243.187 37.8079C240.988 38.1907 239.743 38.1712 239.169 37.7323C238.997 37.6021 238.155 36.5082 237.294 35.3036C234.119 30.9045 234.137 30.5412 237.773 27.0797C239.877 25.0911 242.632 22.6051 242.632 22.7197C242.632 22.777 241.695 24.173 240.547 25.8178C237.122 30.7326 237.029 31.0386 238.309 33.5247C239.552 35.9339 239.801 36.1292 241.523 36.0875C242.92 36.068 244.163 35.8961 244.163 35.762C244.163 35.7242 243.57 34.6915 242.823 33.4674C242.096 32.2432 241.484 31.1337 241.484 31.0009C241.484 30.868 241.81 30.3315 242.231 29.8145C243.111 28.7063 248.448 23.2367 248.258 23.6378C248.181 23.7915 247.531 24.8098 246.804 25.8517C246.077 26.8935 245.33 28.1645 245.119 28.6242C244.412 30.2117 244.698 31.665 246.306 34.4753L247.128 35.9287L250.17 35.8141C251.835 35.7568 253.232 35.6617 253.289 35.6044C253.327 35.5653 252.849 34.9923 252.199 34.323C250.878 32.9842 249.903 31.4345 249.903 30.6701C249.903 30.2872 250.591 29.2936 252.62 26.8453C257.249 21.1843 258.13 20.1529 257.46 21.2455C257.249 21.5516 256.407 22.889 255.585 24.2095C253.882 26.8857 252.466 29.6595 252.275 30.6532C252.122 31.4762 252.772 32.4894 254.149 33.5989C255.795 34.9012 256.599 35.1864 258.339 35.0522C260.349 34.8986 262.395 34.4011 263.142 33.8802C263.663 33.5546 263.774 33.345 263.774 32.8097C263.774 32.0831 263.429 31.8148 262.014 31.471C261.421 31.3173 261.19 31.1649 261.19 30.9162C261.19 30.3041 262.3 28.9081 264.73 26.4989L267.141 24.1079L266.662 25.1602C266.414 25.7332 265.859 26.9391 265.419 27.8181C264.578 29.5579 264.462 30.3614 264.922 31.0503C265.094 31.2795 266.471 32.3318 268.002 33.3827C270.279 34.9702 270.929 35.3531 271.752 35.4664C272.287 35.5614 272.862 35.5966 273.034 35.5614C273.206 35.5432 273.665 35.4468 274.047 35.3895C274.507 35.3127 275.501 34.7579 276.88 33.7643C278.046 32.923 279.095 32.1768 279.233 32.1C279.371 32.0231 278.486 33.0754 277.301 34.4337C276.115 35.7919 275.157 36.9575 275.157 37.0382C275.157 37.1189 275.598 37.2101 276.114 37.2674C278.927 37.6112 282.467 40.9008 286.292 46.774C289.986 52.435 294.309 61.1928 298.882 72.3429L300.47 76.225L302.594 77.6392C307.511 80.9092 310.725 84.945 311.93 89.3597C312.543 91.597 312.523 95.7083 311.891 98.2152L311.433 100.038L311.279 98.4131C310.801 92.9045 309.595 88.9847 307.414 85.8866C306.962 85.2323 306.552 84.5489 306.19 83.8407C304.698 80.4548 297.256 78.6394 284.822 78.6199C279.235 78.6199 278.279 78.7344 275.275 79.6903C271.066 81.0681 267.392 83.7274 264.35 87.6082C262.762 89.6345 261.73 91.3366 260.428 94.1104C259.835 95.3723 259.242 96.6147 259.108 96.883C258.648 97.8584 259.031 93.497 259.567 91.6244C260.102 89.8012 261.499 86.7096 262.494 85.1404C262.838 84.6051 263.107 84.1272 263.107 84.0503C263.107 83.9735 262.188 83.687 261.06 83.42C249.503 80.6853 238.464 81.9875 227.195 87.4167C219.657 91.0501 213.076 95.7513 205.365 103.002C202.973 105.24 198.419 110.058 195.952 112.947C195.187 113.845 194.518 114.61 194.46 114.667C194.401 114.724 194.689 114.146 195.09 113.424C199.95 104.551 206.054 96.9976 211.985 92.5229L213.382 91.4707L211.702 89.7426C208.984 87.0078 204.699 83.9488 200.223 81.5773C199.553 81.2335 199.017 80.8897 199.017 80.8129C199.017 80.7361 199.247 80.5837 199.538 80.4496C203.098 78.8243 205.432 72.3989 206.024 62.5875L206.155 60.3502H207.417C211.358 60.3502 213.176 57.0425 213.176 49.8526C213.176 44.7841 212.334 42.6432 210.115 41.9738L209.407 41.7629L209.292 37.8039C209.162 33.2916 208.699 29.8301 207.729 26.0431C205.739 18.2789 202.525 12.5229 197.455 7.64716C193.532 3.87968 189.055 1.48871 183.814 0.398702C181.695 -0.0336536 177.372 -0.136536 175.19 0.208567ZM177.665 164.573C178.469 169.889 179.272 174.708 179.463 175.281C181.129 180.1 184.821 184.174 189.776 186.718C193.411 188.553 196.301 189.242 200.547 189.242C206.268 189.242 210.669 187.654 215.318 183.902C218.552 181.298 222.167 176.138 223.335 172.505C224.062 170.21 224.597 169.369 226.931 166.96C228.558 165.276 229.342 164.3 229.858 163.325C230.682 161.719 231.409 159.462 231.753 157.454C231.883 156.633 232.02 156.001 232.059 156.04C232.098 156.079 232.211 156.842 232.308 157.76C232.709 161.625 231.727 166.029 229.36 170.975C228.673 172.39 225.286 178.204 221.46 184.477L214.763 195.472L214.668 200.29L214.571 205.089L215.164 204.783C218.36 203.139 222.436 198.951 225.439 194.228L226.472 192.601L226.624 193.31C226.74 193.788 226.701 194.482 226.494 195.49C225.882 198.549 223.471 202.392 219.185 207.097L217.118 209.373L217.1 215.665C217.1 219.107 217.118 221.937 217.158 221.937C217.439 221.818 217.713 221.684 217.98 221.535C219.804 220.617 221.577 218.36 223.643 214.383L224.829 212.089L224.849 213.261C224.849 214.637 224.159 217.181 223.241 219.151C221.938 221.981 218.975 226.341 215.99 229.84L214.708 231.351V237.602L215.761 236.549C217.138 235.153 218.592 234.485 220.257 234.485C221.385 234.466 223.108 234.906 223.567 235.327C223.643 235.384 222.992 235.88 222.133 236.417C218.957 238.386 216.622 240.777 215.284 243.472C214.786 244.487 214.709 244.868 214.709 246.15C214.709 251.408 213.103 258.082 210.577 263.34C209.715 265.176 207.554 268.886 207.267 269.058C207.171 269.115 207.398 268.236 207.765 267.105C209.83 260.622 210.442 255.612 209.391 253.561C208.702 252.203 207.898 252.088 203.421 252.738C198.122 253.504 194.161 253.235 191.081 251.877C189.971 251.381 187.541 249.754 187.541 249.507C187.541 249.43 189.282 249.391 191.406 249.43C199.92 249.56 206.712 248.493 209.352 246.581C210.883 245.471 211.764 243.502 211.973 240.767C212.165 238.052 211.418 235.661 210.118 234.777C209.276 234.224 208.07 234.223 205.622 234.816C200.705 236.001 197.816 236.193 195.08 235.504C192.688 234.911 188.231 232.482 188.231 231.775C188.231 231.661 188.958 231.335 189.857 231.029C192.267 230.207 194.808 230.15 199.308 230.819C203.02 231.374 205.736 231.489 206.979 231.144C209.715 230.362 211.496 227.519 212.321 222.615C213.393 216.132 211.825 212.27 207.214 210.07C204.63 208.828 202.89 208.522 197.781 208.407L193.381 208.311L194.185 207.584C195.045 206.82 196.613 206.245 198.834 205.844C199.523 205.73 202.297 205.596 204.994 205.538L209.911 205.442L210.237 203.97C210.62 202.287 210.677 199.227 210.351 198.118C209.739 196.034 208.016 194.211 205.912 193.414C202.163 191.999 197.666 191.961 187.373 193.26C184.886 193.566 182.031 193.872 181.002 193.949L179.147 194.064L178.859 194.944C178.687 195.422 178.419 196.646 178.247 197.64C177.865 199.854 177.986 204.697 178.458 207.221L178.782 208.885L180.811 208.961C183.336 209.057 184.79 209.497 185.939 210.51C187.468 211.867 187.431 211.943 185.287 211.925C183.049 211.925 181.9 212.365 181.022 213.551C180.084 214.853 180.007 215.674 180.218 222.52C180.37 228.333 180.409 228.771 180.83 229.69C181.612 231.489 182.897 232.35 185.115 232.579C186.321 232.693 186.627 232.865 186.455 233.343C186.397 233.497 186.034 233.592 185.459 233.592C184.254 233.592 182.437 233.936 181.71 234.299C180.831 234.767 180.112 235.486 179.643 236.364C179.242 237.091 179.222 237.417 179.165 242.867L179.108 248.597L180.504 248.96C182.36 249.42 184.446 250.413 185.135 251.14L185.67 251.734L184.943 251.924C184.523 252.02 183.106 252.346 181.767 252.632C179.319 253.153 179.319 253.153 179.319 253.703C179.319 254.295 179.222 254.335 177.462 254.124L176.449 253.993V253.191C176.449 252.119 176.085 251.795 175.224 252.101C174.23 252.464 173.809 252.368 172.966 251.58L172.163 250.834L172.945 250.452C174.054 249.878 174.877 249.133 175.279 248.33C175.585 247.737 175.662 246.953 175.776 242.746C175.907 238.099 175.907 237.774 175.527 236.53C175.03 234.886 174.094 233.72 172.945 233.356C172.256 233.107 172.141 232.993 172.084 232.476C172.007 231.788 172.256 231.635 173.767 231.405C174.954 231.233 176.294 230.507 176.657 229.843C176.944 229.345 176.962 228.599 176.847 222.308L176.733 215.309L176.102 214.028C175.049 211.905 172.294 209.323 170.229 208.539C169.883 208.409 169.749 208.214 169.749 207.869C169.749 207.316 169.749 207.316 171.624 207.391L173.002 207.43L173.672 206.015C175.681 201.635 175.968 197.619 174.437 194.483C173.366 192.246 173.366 192.269 170.879 191.959C167.568 191.577 160.203 191.424 158.002 191.691C149.833 192.724 146.447 196.817 147.901 203.854L148.225 205.383L152.818 205.498C157.735 205.628 159.667 205.843 161.695 206.473C163.225 206.933 164.584 207.812 164.584 208.329C164.584 208.386 163.321 208.424 161.771 208.386C149.546 208.118 144.341 212.498 145.72 221.907C146.293 225.789 147.365 228.466 148.914 229.862C150.77 231.525 152.626 231.774 157.619 231.034C162.02 230.383 163.99 230.27 165.79 230.513C167.473 230.743 169.769 231.469 169.883 231.816C170.094 232.428 165.369 235.028 162.939 235.622C160.854 236.143 157.716 236.061 155.017 235.431C149.675 234.169 148.857 234.128 147.786 235.028C146.829 235.832 146.353 237.242 146.255 239.504C146.159 241.856 146.408 243.195 147.231 244.743C147.919 246.062 148.589 246.675 150.157 247.383C153.219 248.779 156.835 249.295 164.68 249.447L170.803 249.563L169.541 250.462C165.771 253.157 161.715 253.769 154.196 252.718C151.097 252.296 150.733 252.278 150.006 252.527C149.03 252.871 148.573 253.578 148.323 255.146C147.959 257.308 148.801 262.165 150.408 267.257C150.733 268.251 150.963 269.092 150.929 269.131C150.89 269.15 150.451 268.538 149.953 267.735C145.974 261.354 143.888 254.598 143.429 246.603C143.313 244.577 143.256 244.29 142.648 243.123C141.328 240.58 139.089 238.361 135.914 236.411L134.31 235.444L135.132 235.061C135.784 234.755 136.395 234.678 137.792 234.66C139.954 234.66 140.658 234.946 142.352 236.591C142.945 237.164 143.442 237.624 143.481 237.624C143.52 237.624 143.539 236.265 143.539 234.583V231.562L141.95 229.649C136.822 223.491 134.068 218.579 133.398 214.485C132.977 211.88 133.187 211.845 134.392 214.254C136.401 218.213 138.507 220.852 140.248 221.637C140.688 221.847 141.089 221.961 141.109 221.923C141.128 221.886 141.109 220.814 141.012 219.552C140.84 217.372 140.937 212.323 141.166 210.469L141.281 209.608L139.326 207.505C133.912 201.691 131.482 197.521 131.482 194.022C131.482 193.43 131.539 192.894 131.596 192.818C131.673 192.76 132.171 193.41 132.706 194.291C135.614 198.918 139.461 202.914 142.636 204.636L143.536 205.133L143.517 202.398C143.517 200.888 143.44 198.669 143.363 197.464L143.248 195.266L136.648 184.457C133.032 178.51 129.569 172.657 128.961 171.453C127.006 167.533 125.976 163.88 125.823 160.266C125.709 158.124 125.954 155.578 126.167 156.536C127.048 160.4 127.354 161.394 128.157 163.039C128.938 164.601 129.344 165.142 131.295 167.15C133.667 169.579 134.088 170.21 134.7 172.256C135.274 174.187 136.824 176.387 139.368 178.816C142.066 181.42 144.419 183.099 147.748 184.82C155.344 188.74 161.907 189.118 167.206 185.968C169.541 184.572 172.047 181.474 173.444 178.223C174.821 175.086 174.859 174.857 175.491 164.569C175.815 159.367 176.084 154.968 176.084 154.816C176.09 154.113 176.32 155.489 177.659 164.574L177.665 164.573Z" fill="#047452"/>
<path d="M91.4294 35.4323C90.3194 36.37 89.4582 37.1539 89.4973 37.1917C89.5155 37.2112 92.0796 38.7987 95.1596 40.6727L100.762 44.0963L100.877 42.7003C101.049 40.6727 101.833 39.3717 103.765 37.9757C104.168 37.6892 104.417 37.4027 104.358 37.3245C104.301 37.2672 103.862 37.2099 103.421 37.2099C102.082 37.2099 98.9055 36.521 97.2977 35.8712C96.3877 35.4996 95.5108 35.0517 94.6763 34.5324C94.0444 34.1118 93.5037 33.768 93.4906 33.768C93.4568 33.7693 92.52 34.5155 91.4294 35.4323Z" fill="#047452"/>
<path d="M264.252 34.5337C262.32 35.892 258.033 37.2112 255.566 37.2112C255.125 37.2112 254.686 37.2685 254.629 37.3258C254.572 37.4026 254.819 37.6891 255.222 37.9769C257.154 39.373 257.938 40.6739 258.11 42.7016L258.225 44.0976L263.908 40.6362L269.571 37.1747L268.883 36.5627C267.255 35.1471 265.552 33.7706 265.438 33.7901C265.025 34.0094 264.629 34.2579 264.252 34.5337Z" fill="#047452"/>
<path d="M87.5494 333.773C87.1651 335.3 86.9786 336.87 86.9944 338.444V382.034H103.341L103.479 360.316H94.6189V344.389H124.816V397.961L86.0784 398.184C83.3923 398.199 80.7209 397.786 78.1647 396.961C75.6657 396.147 73.4907 395.019 71.6397 393.575C69.8327 392.182 68.3222 390.442 67.1969 388.457C66.0989 386.545 65.5242 384.378 65.5305 382.173V334.901C65.5219 331.815 66.2832 328.776 67.7454 326.058C69.222 323.28 71.2532 320.849 73.839 318.766C76.4249 316.682 79.4493 315.032 82.9124 313.817C86.4497 312.58 90.173 311.958 93.9206 311.978H124.811V336.664H103.479V327.879C102.349 327.955 101.216 327.973 100.085 327.935C98.9293 327.899 97.8002 327.899 96.6971 327.935C95.5989 327.971 94.5073 328.12 93.4398 328.38C92.3483 328.655 91.3312 329.168 90.4614 329.882C88.8875 331.07 87.9168 332.367 87.5494 333.773Z" fill="#047452"/>
<path d="M190.675 344.626C189.691 346.911 188.334 349.015 186.658 350.854C184.876 352.805 182.824 354.491 180.563 355.861C178.174 357.322 175.584 358.427 172.876 359.141V397.961H151.404V360.254C148.94 360.13 146.51 359.624 144.202 358.752C142.095 357.962 140.13 356.835 138.385 355.416C136.776 354.109 135.435 352.503 134.437 350.687C133.459 348.878 132.958 346.849 132.981 344.793V311.976H154.452V344.609C156.62 344.761 158.796 344.779 160.966 344.665C163.367 344.553 165.445 343.829 167.199 342.493C168.769 341.307 169.739 340.008 170.109 338.595C170.491 337.066 170.678 335.494 170.662 333.918L170.802 311.976H192.133V337.448C192.143 339.915 191.647 342.358 190.675 344.626Z" fill="#047452"/>
<path d="M266.375 397.961V330.021C264.064 330.542 262.194 331.248 260.764 332.137C259.335 333.027 258.042 334.327 256.886 336.035C255.73 337.745 255.153 340.046 255.154 342.937V397.957H235.35V342.941C235.437 340.045 234.92 337.744 233.798 336.039C232.677 334.334 231.417 333.035 230.02 332.141C228.623 331.251 226.756 330.545 224.417 330.025V397.965H201.963V311.978H225.513C229.856 312.054 233.596 313.13 236.732 315.208C239.828 317.244 242.47 319.899 244.49 323.005C245.321 321.442 246.498 320.012 248.022 318.716C249.599 317.381 251.318 316.223 253.148 315.264C255.064 314.252 257.084 313.449 259.172 312.869C261.2 312.289 263.297 311.99 265.406 311.978H288.4V397.961H266.375Z" fill="#047452"/>
<path d="M91.9754 450.905H83.0792V414.571H99.2077C100.308 414.564 101.403 414.73 102.451 415.065C103.416 415.368 104.322 415.837 105.125 416.452C105.864 417.015 106.48 417.724 106.933 418.536C107.373 419.333 107.6 420.23 107.593 421.14V425.318C107.598 426.618 107.285 427.899 106.681 429.05C106.058 430.236 105.199 431.283 104.156 432.125C103.031 433.028 101.759 433.733 100.396 434.208C98.9324 434.729 97.3893 434.991 95.8358 434.982H91.9754V450.905ZM98.7504 421.303H91.9754V428.415C92.8925 428.479 93.8128 428.487 94.731 428.438C95.6663 428.413 96.57 428.094 97.3133 427.526C97.9639 427.025 98.3656 426.476 98.5185 425.879C98.6777 425.232 98.7552 424.568 98.7491 423.902L98.7504 421.303Z" fill="#047452"/>
<path d="M110.514 450.905V414.571H119.813V443.891H129.914V450.902L110.514 450.905Z" fill="#047452"/>
<path d="M147.937 450.905V435.046H141.162V450.905H132.265V424.268C132.258 422.973 132.571 421.695 133.177 420.55C133.804 419.371 134.664 418.331 135.703 417.491C136.824 416.585 138.097 415.884 139.462 415.421C140.931 414.913 142.468 414.627 144.022 414.574H148.442C149.54 414.536 150.637 414.686 151.684 415.019C152.648 415.323 153.551 415.793 154.354 416.406C155.098 416.978 155.714 417.698 156.163 418.521C156.6 419.329 156.827 420.234 156.822 421.153V450.905H147.937ZM147.937 421.351C147.096 421.382 146.177 421.421 145.182 421.468C144.245 421.494 143.341 421.815 142.599 422.386C142.309 422.62 142.057 422.898 141.853 423.209C141.645 423.549 141.499 423.924 141.423 424.315C141.315 424.85 141.248 425.393 141.222 425.939C141.183 426.582 141.164 427.375 141.165 428.316H147.94L147.937 421.351Z" fill="#047452"/>
<path d="M176.808 450.905V434.904C176.808 433.964 176.603 432.881 176.192 431.657C175.782 430.435 175.259 429.253 174.628 428.128C174.035 427.053 173.322 426.048 172.502 425.133C171.72 424.269 170.975 423.728 170.265 423.509V450.905H160.968V414.571H168.084C168.979 414.584 169.864 414.767 170.69 415.112C171.577 415.468 172.416 415.934 173.186 416.5C173.951 417.065 174.645 417.721 175.253 418.454C175.821 419.115 176.268 419.872 176.572 420.69V414.569H186.1V450.902L176.808 450.905Z" fill="#047452"/>
<path d="M206.482 450.905V434.904C206.482 433.964 206.277 432.881 205.867 431.657C205.457 430.435 204.934 429.253 204.303 428.128C203.71 427.053 202.997 426.048 202.178 425.133C201.397 424.269 200.651 423.728 199.941 423.509V450.905H190.642V414.571H197.761C198.657 414.584 199.541 414.767 200.367 415.112C201.255 415.467 202.094 415.934 202.865 416.5C203.63 417.065 204.324 417.721 204.931 418.454C205.499 419.116 205.945 419.873 206.251 420.69V414.569H215.779V450.902L206.482 450.905Z" fill="#047452"/>
<path d="M227.891 451C226.789 451.006 225.693 450.83 224.648 450.479C223.682 450.16 222.779 449.675 221.98 449.046C221.233 448.459 220.617 447.723 220.171 446.885C219.734 446.068 219.507 445.156 219.511 444.229V424.256C219.505 422.955 219.818 421.672 220.423 420.52C221.046 419.332 221.905 418.284 222.948 417.44C224.072 416.534 225.344 415.827 226.708 415.35C228.171 414.826 229.714 414.561 231.268 414.569H240.681V421.298H232.129C231.326 421.298 230.561 421.582 229.834 422.151C229.182 422.657 228.78 423.21 228.628 423.81C228.469 424.461 228.392 425.129 228.399 425.8V428.31H237.295V435.041H228.399V444.172H240.681V450.901L227.891 451Z" fill="#047452"/>
<path d="M253.03 450.905H244.134V414.571H260.263C261.363 414.564 262.457 414.731 263.506 415.065C264.469 415.369 265.373 415.839 266.175 416.453C266.915 417.02 267.53 417.733 267.982 418.547C268.422 419.347 268.649 420.247 268.643 421.16V425.348C268.658 426.993 268.167 428.603 267.236 429.96C266.266 431.369 264.979 432.529 263.477 433.346L269.101 450.9H259.573L254.581 435.041H253.03V450.905ZM259.805 421.303H253.03V428.363C253.947 428.428 254.867 428.443 255.786 428.409C256.721 428.399 257.627 428.086 258.368 427.516C259.018 427.014 259.42 426.465 259.573 425.869C259.732 425.222 259.809 424.558 259.803 423.892L259.805 421.303Z" fill="#047452"/>
</g>
<defs>
<clipPath id="clip0_53_596">
<rect width="359" height="451" fill="white"/>
</clipPath>
</defs>
</svg>
